#!OML:ASF F:\VICON\USERDATA\INSTALL\rory3\rory3.ASF
:FULLY-SPECIFIED
:DEGREES
5191
root -2.92654 15.9445 1.71697 1.90156 -34.7343 0.967611
lowerback 10.6455 6.03223 1.10001
upperback -1.79566 8.25781 0.752547
thorax -7.80323 3.98917 -1.23032
lowerneck -24.7222 -0.59681 -7.35131
upperneck 26.5028 -1.5647 11.3748
head 13.1731 0.140478 5.47363
rclavicle -2.10215e-014 -1.82882e-014
rhumerus 26.8043 4.76871 -50.0505
rradius 114.481
rwrist -1.31987
rhand -10.1805 8.74057
rfingers 7.12502
rthumb 15.8098 -20.6339
lclavicle -2.10215e-014 -1.82882e-014
lhumerus 18.6019 -19.6513 80.1557
lradius 118.902
lwrist -8.09462
lhand -13.9242 7.00465
lfingers 7.12502
lthumb 12.2022 36.6287
rfemur 10.8837 -11.6223 15.5913
rtibia 47.8872
rfoot -20.2492 0.740259
rtoes -21.8791
lfemur -47.2807 -12.9355 -17.1817
ltibia 50.7217
lfoot -3.14361 -8.93084
ltoes -15.8491
5192
root -2.95767 15.8774 1.76273 2.20384 -35.3299 0.748972
lowerback 10.4738 6.69861 2.14985
upperback -1.90793 9.23303 0.0503162
thorax -7.52415 4.41089 -2.65864
lowerneck -24.6884 -0.942064 -7.48736
upperneck 26.2276 -2.16411 11.93
head 13.1411 -0.0605655 5.60341
rclavicle -4.67392e-014 -2.78299e-015
rhumerus 31.2896 3.95444 -49.9447
rradius 104.834
rwrist 2.14052
rhand -6.14254 7.93798
rfingers 7.12502
rthumb 19.6953 -21.0843
lclavicle -4.67392e-014 -2.78299e-015
lhumerus 19.6532 -20.842 80.1331
lradius 119.005
lwrist -8.77458
lhand -13.2851 6.75182
lfingers 7.12502
lthumb 12.8184 36.3383
rfemur 10.9381 -11.7158 15.4562
rtibia 48.0215
rfoot -20.9934 0.983989
rtoes -22.8542
lfemur -47.6726 -12.0327 -17.1045
ltibia 51.7078
lfoot -4.17428 -8.89016
ltoes -13.9245
5193
root -2.98348 15.8255 1.79289 2.67709 -35.9099 0.209484
lowerback 10.6033 7.25 3.27318
upperback -2.14181 10.0927 -0.458316
thorax -7.522 4.76845 -3.94155
lowerneck -24.6689 -1.17487 -7.35946
upperneck 26.2124 -2.58012 12.0183
head 13.1869 -0.217819 5.54307
rclavicle -5.79954e-014 1.39149e-014
rhumerus 36.1532 3.59317 -49.5169
rradius 93.227
rwrist 7.98348
rhand -2.5962 7.65457
rfingers 7.12502
rthumb 23.1015 -20.9805
lclavicle -5.79954e-014 1.39149e-014
lhumerus 19.9642 -21.8381 80.2611
lradius 119.335
lwrist -9.79387
lhand -12.5907 6.43244
lfingers 7.12502
lthumb 13.4877 35.9757
rfemur 10.9979 -11.8783 15.6864
rtibia 48.0265
rfoot -21.678 0.956769
rtoes -23.4331
lfemur -48.2009 -10.8884 -16.6685
ltibia 52.6557
lfoot -4.51112 -9.76995
ltoes -11.1645
5194
root -3.00733 15.7879 1.81578 2.78454 -36.5378 0.0677723
lowerback 10.955 7.7172 3.88251
upperback -2.34593 10.788 -0.897264
thorax -7.69142 5.05989 -4.8862
lowerneck -24.8689 -1.26847 -7.06642
upperneck 26.4805 -2.78833 11.8351
head 13.359 -0.29749 5.40014
rclavicle 7.59233e-014 -1.11319e-014
rhumerus 41.6654 3.73153 -48.8825
rradius 79.5848
rwrist 14.5609
rhand -1.02187 8.01324
rfingers 7.12502
rthumb 24.6112 -20.4245
lclavicle 7.59233e-014 -1.11319e-014
lhumerus 19.5061 -22.6511 80.5706
lradius 119.992
lwrist -11.1731
lhand -12.2131 5.87021
lfingers 7.12502
lthumb 13.8516 35.389
rfemur 11.2226 -12.1264 15.4616
rtibia 47.9173
rfoot -22.2395 1.03095
rtoes -22.9265
lfemur -48.5726 -9.4333 -16.8349
ltibia 53.5681
lfoot -4.85549 -10.7139
ltoes -11.5803
5195
root -3.03354 15.7542 1.83332 2.61374 -37.0371 0.354652
lowerback 11.1894 8.07111 3.91898
upperback -2.39688 11.2502 -1.2429
thorax -7.75701 5.27196 -5.37035
lowerneck -25.2806 -1.22634 -6.68639
upperneck 26.7962 -2.76639 11.459
head 13.5602 -0.287949 5.20994
rclavicle -3.17683e-014 8.54774e-015
rhumerus 47.8149 4.26755 -48.0689
rradius 64.4624
rwrist 20.1521
rhand -1.30623 8.56452
rfingers 7.12502
rthumb 24.3387 -19.9101
lclavicle -3.17683e-014 8.54774e-015
lhumerus 18.6471 -23.2727 81.0494
lradius 120.953
lwrist -12.5707
lhand -11.8315 5.48407
lfingers 7.12502
lthumb 14.2194 34.9773
rfemur 11.5007 -12.4721 14.8845
rtibia 47.6679
rfoot -22.7553 0.997696
rtoes -22.0596
lfemur -48.7902 -8.01022 -17.4896
ltibia 54.326
lfoot -5.56423 -11.4688
ltoes -14.6431
5196
root -3.06091 15.7369 1.84882 2.5091 -37.336 0.50455
lowerback 11.2806 8.27423 3.95931
upperback -2.27895 11.5139 -1.39819
thorax -7.61289 5.405 -5.58929
lowerneck -25.852 -1.12989 -6.39556
upperneck 27.0066 -2.58862 11.0138
head 13.7321 -0.226928 5.0318
rclavicle 4.50123e-014 9.14409e-015
rhumerus 53.9697 5.08975 -46.4964
rradius 49.7627
rwrist 24.6127
rhand -0.321125 7.87216
rfingers 7.12502
rthumb 25.2828 -20.4724
lclavicle 4.50123e-014 9.14409e-015
lhumerus 17.655 -23.7255 81.5801
lradius 121.981
lwrist -13.7054
lhand -11.394 5.13051
lfingers 7.12502
lthumb 14.641 34.5937
rfemur 11.8874 -12.7827 14.5884
rtibia 47.1564
rfoot -23.2669 0.71839
rtoes -21.4219
lfemur -48.8495 -6.83348 -17.9437
ltibia 54.7717
lfoot -6.07192 -12.2883
ltoes -15.3792
5197
root -3.09143 15.7545 1.86725 2.45887 -37.51 0.55427
lowerback 11.2442 8.37711 4.02394
upperback -2.03458 11.6464 -1.4355
thorax -7.29314 5.48749 -5.64306
lowerneck -26.5235 -1.03718 -6.21161
upperneck 27.0817 -2.37744 10.635
head 13.868 -0.153289 4.90045
rclavicle -1.38317e-013 -6.36111e-015
rhumerus 58.8103 6.47912 -43.0643
rradius 38.3249
rwrist 26.9627
rhand 1.56142 7.9822
rfingers 7.12502
rthumb 27.0851 -20.095
lclavicle -1.38317e-013 -6.36111e-015
lhumerus 16.4984 -24.2002 81.9887
lradius 123.012
lwrist -14.2352
lhand -11.2392 4.92563
lfingers 7.12502
lthumb 14.79 34.3779
rfemur 12.4448 -13.0164 14.4833
rtibia 46.3016
rfoot -23.5512 0.479651
rtoes -20.013
lfemur -48.6437 -5.97116 -18.2189
ltibia 54.7658
lfoot -6.21963 -12.9238
ltoes -15.092
5198
root -3.12682 15.7976 1.88695 2.47366 -37.5423 0.622356
lowerback 11.1928 8.46607 3.90158
upperback -1.87434 11.7373 -1.46695
thorax -7.0986 5.54953 -5.59587
lowerneck -27.032 -1.01094 -6.11099
upperneck 27.0028 -2.34473 10.6147
head 13.9347 -0.119643 4.88747
rclavicle -9.73796e-014 -5.56597e-015
rhumerus 61.2412 8.38519 -37.9472
rradius 32.673
rwrist 28.4116
rhand 3.14459 10.7743
rfingers 7.12502
rthumb 28.5987 -17.0577
lclavicle -9.73796e-014 -5.56597e-015
lhumerus 15.0951 -24.9776 82.3592
lradius 123.908
lwrist -14.1227
lhand -11.1452 4.93064
lfingers 7.12502
lthumb 14.8806 34.3762
rfemur 13.0833 -13.3202 14.4329
rtibia 45.0951
rfoot -23.5131 0.0870555
rtoes -18.4838
lfemur -48.2397 -5.331 -18.4634
ltibia 54.3191
lfoot -6.08966 -13.4498
ltoes -14.9461
5199
root -3.16583 15.8603 1.90919 2.48931 -37.4217 0.915356
lowerback 11.2769 8.63418 3.11996
upperback -2.07698 11.8668 -1.39022
thorax -7.52342 5.62156 -5.17425
lowerneck -26.9911 -1.10351 -6.21586
upperneck 26.8834 -2.53746 10.9494
head 13.9069 -0.167305 5.00145
rclavicle -2.24627e-014 7.7526e-015
rhumerus 61.5517 10.5062 -34.187
rradius 31.8744
rwrist 26.1682
rhand 7.60354 11.1093
rfingers 7.12502
rthumb 32.85 -15.9224
lclavicle -2.24627e-014 7.7526e-015
lhumerus 13.0235 -26.0999 83.213
lradius 124.584
lwrist -13.8537
lhand -11.0045 4.68134
lfingers 7.12502
lthumb 15.0162 34.1168
rfemur 13.6598 -13.5853 14.325
rtibia 43.6503
rfoot -23.2864 -0.433223
rtoes -16.5551
lfemur -47.7639 -4.85235 -18.8737
ltibia 53.4812
lfoot -5.57396 -14.0138
ltoes -13.5598
5200
root -3.19988 15.9382 1.92505 2.766 -36.9498 0.961038
lowerback 10.9647 8.78662 2.67267
upperback -2.11585 11.9969 -1.4432
thorax -7.45577 5.70821 -4.96583
lowerneck -26.8153 -1.38789 -6.26533
upperneck 26.3264 -3.12089 11.646
head 13.7256 -0.332562 5.15388
rclavicle 1.38652e-013 -1.64991e-014
rhumerus 60.185 11.5895 -33.7044
rradius 33.6613
rwrist 26.4136
rhand 6.25161 11.7452
rfingers 7.12502
rthumb 31.563 -15.5474
lclavicle 1.38652e-013 -1.64991e-014
lhumerus 11.6578 -27.6923 83.6557
lradius 125.02
lwrist -13.7259
lhand -11.0349 4.32136
lfingers 7.12502
lthumb 14.9869 33.759
rfemur 14.0411 -13.7347 14.7537
rtibia 42.111
rfoot -22.8521 -1.32285
rtoes -15.113
lfemur -47.3795 -4.75263 -19.0046
ltibia 52.334
lfoot -4.77413 -14.5745
ltoes -12.1039
5201
root -3.22132 16.031 1.92713 3.44578 -36.1391 0.610762
lowerback 10.0369 8.84596 2.73911
upperback -1.81768 12.045 -1.59405
thorax -6.56205 5.77733 -4.95156
lowerneck -26.828 -1.7669 -6.07926
upperneck 25.4454 -3.93792 12.4774
head 13.4883 -0.558963 5.26085
rclavicle 9.15776e-014 2.78299e-015
rhumerus 57.8097 11.7407 -35.2776
rradius 37.6803
rwrist 26.0298
rhand 1.44474 11.0591
rfingers 7.12502
rthumb 26.9734 -17.0354
lclavicle 9.15776e-014 2.78299e-015
lhumerus 11.2517 -29.4602 83.5566
lradius 125.28
lwrist -13.7539
lhand -11.1211 4.22475
lfingers 7.12502
lthumb 14.9038 33.6686
rfemur 14.0417 -13.801 15.8614
rtibia 40.6222
rfoot -22.1071 -2.74511
rtoes -15.1913
lfemur -47.1932 -5.06157 -18.7036
ltibia 50.9343
lfoot -3.8258 -15.089
ltoes -11.26
